<?xml version="1.0" encoding="utf-8"?>
<!-- Generator: Adobe Illustrator 19.0.1, SVG Export Plug-In . SVG Version: 6.00 Build 0)  -->
<svg version="1.1" id="Layer_1" xmlns="http://www.w3.org/2000/svg" xmlns:xlink="http://www.w3.org/1999/xlink" x="0px" y="0px"
	 viewBox="0 0 200 200" enable-background="new 0 0 200 200" xml:space="preserve">
<g>
	<path fill="#FFFFFF" d="M13.4,137.1c2.7,0,5.1,0,7.8,0c-10.5-23.5-12-47.2-3.4-71.2c7-19.3,20-34.1,37-45.3c30-19.9,75.8-18.6,106.5,7.2
		c33.4,28,38.4,68.4,27.1,101.1c-2.6,0-5.2,0-8,0c-5.9,16.2-16,29.4-29.1,40.2c0,0.2-0.1,0.4-0.1,0.4c0.4,0.2,0.7,0.3,1.2,0.5
		c-0.1,0.6-0.1,1.1-0.2,1.7c0,0.6-0.1,1.2-0.5,1.4c-1.5,1.3-2.9,2.7-4.4,4c0.2,0.2,0.3,0.5,0.5,0.7c-1.2,0-2.4,0-3.8,0
		c-0.1-1-0.2-1.8-0.3-2.6c-29.6,16.6-59.9,18.8-90.5,3.7C35.1,169.9,20.7,153.3,13.4,137.1z M140.3,60.9
		c-20.3-21.2-53.6-19.4-71.8-2.4C58.4,67.9,52,79.1,50.9,93c-1.3,17.4,4.6,32,18.1,44.3c-3,0-5.2,0-8,0c9.9,8.4,20.6,12.4,32.9,12.6
		c17.7,0.2,31.9-7,42.9-20.9c2.7,0,5.3,0,8,0c1.1-1.7,2.1-3.3,3.3-5.1c-6.2-3.5-12.1-6.9-17.9-10.2c-11,18.2-34.9,19.4-47.7,7.6
		c-13.5-12.5-14.5-32.1-2-45.1c11.4-11.8,31.7-13.2,41.9-2.8c-4.4,3.2-8.7,6.4-13.4,9.8c12.7,4.3,25,8.4,37.3,12.5
		c0,0.3,0.1,0.6,0.1,0.9c0.3-0.6,0.6-1.2,0.7-1.4c2.9,1.2,5.4,2.3,8.3,3.5c-0.1-1.1-0.1-1.6-0.1-2.1c-1.2-0.1-2.2-0.2-3.1-0.3
		c0-1.4,0-2.6,0-3.9c1.4-0.1,2.6-0.2,3.5-0.2c0-14.1,0-27.8,0-42.3C150.1,53.8,145.2,57.3,140.3,60.9z M146.2,173.1
		c0.1,0.3,0.2,0.5,0.4,0.8c0.5-0.3,1-0.6,1.4-0.9c-0.1-0.2-0.3-0.4-0.4-0.6C147.1,172.6,146.6,172.9,146.2,173.1z"/>
	<path fill="#FFFFFF" d="M154.9,61.2c0,0.3,0,0.6,0,1c-0.1,0-0.2,0-0.2,0c-0.1-0.3-0.1-0.7-0.2-1C154.6,61.2,154.8,61.2,154.9,61.2z"/>
	<path fill="#FFFFFF" d="M153.4,59.9c-0.1,0.1-0.1,0.2-0.2,0.3c0-0.1,0-0.1,0-0.2C153.2,60,153.3,60,153.4,59.9z"/>
	<polygon fill="#FFFFFF" points="152.3,61.8 152.2,62 152.2,61.8 	"/>
	<path fill="#FFFFFF" d="M153.3,63.3C153.2,63.5,153.3,63.4,153.3,63.3C153.3,63.4,153.3,63.6,153.3,63.3z"/>
</g>
</svg>
