<?xml version="1.0" encoding="utf-8"?>
<!-- Generator: Adobe Illustrator 19.0.1, SVG Export Plug-In . SVG Version: 6.00 Build 0)  -->
<svg version="1.1" id="Layer_1" xmlns="http://www.w3.org/2000/svg" xmlns:xlink="http://www.w3.org/1999/xlink" x="0px" y="0px"
	 viewBox="0 0 200 200" enable-background="new 0 0 200 200" xml:space="preserve">
<g>
	<path fill="#FFFFFF" d="M11.3,98.7c0-24.5,8.7-45.4,26.1-62.8C54.8,18.5,75.6,9.9,100,10c24.4,0.1,45.3,8.8,62.8,25.9
		C180.3,53,188.9,74,188.7,98.7c-0.2,24.7-8.9,45.6-25.9,62.8s-38,25.8-62.8,25.9c-24.8,0.1-45.7-8.5-62.6-25.9
		C20.5,144.1,11.8,123.1,11.3,98.7z M48.8,98.7c0,14.1,5,26.1,15.1,36.2c10,10,22.1,15.1,36.2,15.1c9.5,0,18.1-2.3,25.9-6.9
		c7.8-4.6,13.9-10.9,18.4-18.8l-18.1-10.3c-2.5,4.6-6.1,8.3-10.8,11c-4.7,2.7-9.9,4.1-15.4,4.3c-8.3,0-15.4-3-21.5-9
		c-6-6-9-13.2-9-21.5c0-8.3,3-15.4,9-21.5c6-6,13.2-9,21.5-9c7.2,0,13.5,2.2,19,6.6l-13.5,9.8l45.8,15.3V51.9l-14.9,10.8
		c-9.9-10.2-22-15.2-36.2-15.2c-14.2,0-26.3,5-36.4,15.1C53.8,72.5,48.8,84.6,48.8,98.7z"/>
</g>
</svg>
